<svg xmlns="http://www.w3.org/2000/svg" xmlns:xlink="http://www.w3.org/1999/xlink" width="99" height="84" viewBox="0 0 99 84">
  <defs>
    <clipPath id="clip-path">
      <circle id="Ellipse_30" data-name="Ellipse 30" cx="22" cy="22" r="22" transform="translate(-0.481 -0.23)" fill="none" stroke="#707070" stroke-width="0.5"/>
    </clipPath>
  </defs>
  <g id="Group_487" data-name="Group 487" transform="translate(-21.438 -17.239)">
    <g id="Rectangle_167" data-name="Rectangle 167" transform="translate(21.438 17.239)" fill="none" stroke="#707070" stroke-width="0.7" stroke-dasharray="4 2">
      <rect width="99" height="84" stroke="none"/>
      <rect x="0.35" y="0.35" width="98.3" height="83.3" fill="none"/>
    </g>
    <g id="Group_352" data-name="Group 352" transform="translate(49.919 25.469)">
      <g id="Path_263" data-name="Path 263" transform="translate(0 0)" fill="none">
        <path d="M21.9,0A21.9,21.9,0,1,1,0,21.9,21.9,21.9,0,0,1,21.9,0Z" stroke="none"/>
        <path d="M 21.9033260345459 0.6999969482421875 C 19.04058647155762 0.6999969482421875 16.26385688781738 1.260517120361328 13.65024566650391 2.365974426269531 C 11.12545776367188 3.433864593505859 8.857814788818359 4.962806701660156 6.910305023193359 6.910305023193359 C 4.962806701660156 8.857814788818359 3.433864593505859 11.12545776367188 2.365974426269531 13.65024566650391 C 1.260517120361328 16.26385688781738 0.6999969482421875 19.04058647155762 0.6999969482421875 21.9033260345459 C 0.6999969482421875 24.76606559753418 1.260517120361328 27.54279518127441 2.365974426269531 30.15639495849609 C 3.433864593505859 32.68119812011719 4.962806701660156 34.94883728027344 6.910305023193359 36.89633560180664 C 8.857814788818359 38.84383392333984 11.12545776367188 40.37277603149414 13.65024566650391 41.44067764282227 C 16.26385688781738 42.54613494873047 19.04058647155762 43.10664749145508 21.9033260345459 43.10664749145508 C 24.76606559753418 43.10664749145508 27.54279518127441 42.54613494873047 30.15639495849609 41.44067764282227 C 32.68119812011719 40.37277603149414 34.94883728027344 38.84383392333984 36.89633560180664 36.89633560180664 C 38.84383392333984 34.94883728027344 40.37277603149414 32.68119812011719 41.44067764282227 30.15639495849609 C 42.54613494873047 27.54279518127441 43.10664749145508 24.76606559753418 43.10664749145508 21.9033260345459 C 43.10664749145508 19.04058647155762 42.54613494873047 16.26385688781738 41.44067764282227 13.65024566650391 C 40.37277603149414 11.12545776367188 38.84383392333984 8.857814788818359 36.89633560180664 6.910305023193359 C 34.94883728027344 4.962806701660156 32.68119812011719 3.433864593505859 30.15639495849609 2.365974426269531 C 27.54279518127441 1.260517120361328 24.76606559753418 0.6999969482421875 21.9033260345459 0.6999969482421875 M 21.9033260345459 -3.814697265625e-06 C 34.00019836425781 -3.814697265625e-06 43.80664443969727 9.80645751953125 43.80664443969727 21.9033260345459 C 43.80664443969727 34.00019836425781 34.00019836425781 43.80664443969727 21.9033260345459 43.80664443969727 C 9.80645751953125 43.80664443969727 -3.814697265625e-06 34.00019836425781 -3.814697265625e-06 21.9033260345459 C -3.814697265625e-06 9.80645751953125 9.80645751953125 -3.814697265625e-06 21.9033260345459 -3.814697265625e-06 Z" stroke="none" fill="#707070"/>
      </g>
      <g id="Group_351" data-name="Group 351">
        <g id="Mask_Group_4" data-name="Mask Group 4" clip-path="url(#clip-path)">
          <g id="Group_350" data-name="Group 350" transform="translate(4.461 17.759)">
            <g id="Group_342" data-name="Group 342" transform="translate(0.113 0.19)">
              <path id="Path_260" data-name="Path 260" d="M18.132,0Q17.358,0,16.6.027A.155.155,0,0,0,16.475.2.151.151,0,0,0,16.6.362h0q.755-.026,1.527-.027A.152.152,0,0,0,18.26.168.152.152,0,0,0,18.132,0Zm1.53.025a.151.151,0,0,0-.128.163.155.155,0,0,0,.124.172q.773.025,1.526.078h.007a.15.15,0,0,0,.127-.159A.158.158,0,0,0,21.2.1Q20.442.05,19.665.025ZM15.074.109h-.007c-.511.036-1.026.082-1.53.137a.159.159,0,0,0-.117.181c.006.092.058.17.138.153.5-.054,1.013-.1,1.522-.135A.158.158,0,0,0,15.2.267.15.15,0,0,0,15.074.109Zm7.644.128a.148.148,0,0,0-.127.154.16.16,0,0,0,.117.181c.5.053,1.009.117,1.52.191.079.009.133-.056.14-.148a.162.162,0,0,0-.113-.185C23.742.355,23.228.29,22.728.237ZM12.024.44h-.014C11.492.519,10.98.6,10.488.7a.166.166,0,0,0-.108.19c.01.091.072.157.144.142.49-.094,1-.181,1.514-.258A.162.162,0,0,0,12.15.588.145.145,0,0,0,12.024.44ZM25.759.684a.144.144,0,0,0-.126.143.166.166,0,0,0,.108.19c.51.1,1.017.206,1.506.323.07.018.135-.045.148-.135a.17.17,0,0,0-.1-.195c-.491-.117-1-.226-1.514-.324ZM9,1.025a.092.092,0,0,0-.023,0c-.52.126-1.026.263-1.5.408a.173.173,0,0,0-.1.2c.015.09.082.15.152.126.475-.143.978-.279,1.494-.4a.172.172,0,0,0,.1-.2A.143.143,0,0,0,9,1.025Zm19.771.385a.139.139,0,0,0-.124.13.173.173,0,0,0,.1.2c.515.154,1.011.319,1.477.491.067.027.138-.027.157-.116a.179.179,0,0,0-.088-.206c-.47-.173-.971-.341-1.49-.5A.108.108,0,0,0,28.768,1.409ZM6.017,1.928a.094.094,0,0,0-.034.007c-.512.191-1.005.4-1.466.614a.184.184,0,0,0-.077.214c.023.088.1.134.163.1.455-.214.943-.418,1.449-.607a.179.179,0,0,0,.088-.207A.138.138,0,0,0,6.017,1.928Zm25.694.577a.135.135,0,0,0-.12.112.184.184,0,0,0,.078.214,14.451,14.451,0,0,1,1.408.745.117.117,0,0,0,.169-.082.192.192,0,0,0-.063-.222,14.467,14.467,0,0,0-1.43-.757A.1.1,0,0,0,31.711,2.506ZM3.143,3.3a.1.1,0,0,0-.054.016A9.837,9.837,0,0,0,1.736,4.3a.2.2,0,0,0-.035.232.11.11,0,0,0,.177.046A9.593,9.593,0,0,1,3.2,3.619.192.192,0,0,0,3.258,3.4.129.129,0,0,0,3.143,3.3Zm31.329.919a.123.123,0,0,0-.107.076.2.2,0,0,0,.037.232,5.843,5.843,0,0,1,1.13,1.267.107.107,0,0,0,.179.021.206.206,0,0,0,.016-.236,6.14,6.14,0,0,0-1.186-1.333A.108.108,0,0,0,34.471,4.219ZM.664,5.593a.119.119,0,0,0-.1.063A3.632,3.632,0,0,0,0,7.557c0,.092.057.183.128.183a.136.136,0,0,0,.128-.151V7.547A3.228,3.228,0,0,1,.764,5.866a.206.206,0,0,0-.02-.236A.112.112,0,0,0,.664,5.593Zm35.547,1.9-.127.034a3.257,3.257,0,0,1-.522,1.743.2.2,0,0,0,.019.236.108.108,0,0,0,.179-.025,3.637,3.637,0,0,0,.58-1.925ZM.695,9.236a.111.111,0,0,0-.081.039A.205.205,0,0,0,.6,9.511a6.135,6.135,0,0,0,1.181,1.34.11.11,0,0,0,.176-.048.2.2,0,0,0-.036-.232A5.82,5.82,0,0,1,.793,9.3.119.119,0,0,0,.695,9.236Zm33.818,1.288a.1.1,0,0,0-.071.028,9.8,9.8,0,0,1-1.321.958.192.192,0,0,0-.062.223.116.116,0,0,0,.169.081,10.044,10.044,0,0,0,1.355-.983.2.2,0,0,0,.035-.232A.122.122,0,0,0,34.513,10.525Zm-31.324.984a.131.131,0,0,0-.116.1.193.193,0,0,0,.062.222,14.571,14.571,0,0,0,1.429.761c.068.03.139-.015.163-.1a.186.186,0,0,0-.077-.214,14.515,14.515,0,0,1-1.406-.748A.1.1,0,0,0,3.189,11.508Zm28.568.742a.111.111,0,0,0-.043.009c-.458.215-.945.419-1.45.605a.179.179,0,0,0-.088.206c.019.089.09.142.157.116.51-.188,1-.394,1.466-.611a.186.186,0,0,0,.077-.214A.135.135,0,0,0,31.758,12.251Zm-25.693.618a.137.137,0,0,0-.123.122.18.18,0,0,0,.088.207c.472.175.974.342,1.49.5.071.023.136-.036.152-.126a.173.173,0,0,0-.1-.2c-.512-.153-1.008-.318-1.477-.492A.093.093,0,0,0,6.064,12.869Zm22.752.487a.087.087,0,0,0-.028,0c-.483.144-.985.28-1.494.4a.171.171,0,0,0-.1.195c.013.091.079.152.149.135.512-.124,1.018-.26,1.5-.407a.173.173,0,0,0,.1-.2A.14.14,0,0,0,28.817,13.357Zm-19.77.41a.142.142,0,0,0-.125.137.17.17,0,0,0,.1.2c.5.119,1.005.229,1.515.326.073.013.134-.051.144-.142a.166.166,0,0,0-.108-.19c-.506-.1-1.013-.205-1.505-.324A.089.089,0,0,0,9.046,13.766Zm16.762.32-.018,0c-.5.1-1.008.181-1.513.256a.162.162,0,0,0-.112.185c.007.092.066.155.14.148.508-.075,1.02-.161,1.522-.258a.166.166,0,0,0,.108-.19A.144.144,0,0,0,25.808,14.087Zm-13.735.26a.146.146,0,0,0-.127.149.163.163,0,0,0,.113.185c.5.073,1.016.138,1.527.193.079.014.132-.061.138-.153a.16.16,0,0,0-.117-.181c-.509-.055-1.02-.12-1.52-.192Zm10.694.19h-.011c-.507.054-1.02.1-1.523.135a.158.158,0,0,0-.121.176.154.154,0,0,0,.134.159c.505-.035,1.021-.081,1.53-.136a.16.16,0,0,0,.117-.181A.147.147,0,0,0,22.768,14.537Zm-7.644.138a.149.149,0,0,0-.127.159.157.157,0,0,0,.121.176q.756.052,1.532.079c.076.008.129-.071.131-.163a.155.155,0,0,0-.124-.172c-.515-.017-1.024-.045-1.526-.079Zm4.589.078h0q-.755.026-1.527.027a.174.174,0,0,0,0,.335q.774,0,1.533-.027a.155.155,0,0,0,.124-.171A.151.151,0,0,0,19.712,14.753Z" transform="translate(0 0)" fill="#707070" stroke="#707070" stroke-width="0.3"/>
            </g>
            <g id="Group_343" data-name="Group 343" transform="translate(0 0)">
              <path id="Path_261" data-name="Path 261" d="M18.3,0A41.3,41.3,0,0,0,12,.469C4.711,1.6,0,4.495,0,7.856a.4.4,0,0,0,.029.149L18.3,52.99l4.158-10.215L36.549,8.061a.737.737,0,0,0,.051-.2c0-3.116-4.044-5.85-10.555-7.134A40.16,40.16,0,0,0,18.3,0ZM.491,7.78C.57,4.839,5.2,2.161,12.058,1.1A41.03,41.03,0,0,1,18.3.638a39.808,39.808,0,0,1,7.675.716c6.1,1.2,10.064,3.72,10.137,6.427L18.3,51.665Z" transform="translate(0)" fill="#707070" stroke="#707070" stroke-width="0.1"/>
            </g>
          </g>
        </g>
        <g id="Group_351-2" data-name="Group 351" transform="translate(11.094 39.476)">
          <g id="Group_343-2" data-name="Group 343" transform="translate(0 0)">
            <path id="Path_261-2" data-name="Path 261" d="M29.393,26.4l-.246.482L18.227,48.237,7.98,28.216l-.194-.389a7.1,7.1,0,0,1-.646-.307l.207.4L18.227,49.17l3.722-7.224,7.96-15.554.258-.512C29.909,26.064,29.664,26.239,29.393,26.4Z" transform="translate(-7.14 -25.88)" fill="#707070" stroke="#707070" stroke-width="0.3"/>
          </g>
          <g id="Ellipse_31" data-name="Ellipse 31" transform="translate(0 0)">
            <path id="Path_1" data-name="Path 1" d="M30.168,25.88l-.258.509c-.246.173-.5.336-.762.489a22.734,22.734,0,0,1-11.85,3.2A23.592,23.592,0,0,1,7.98,28.2c-.22-.1-.426-.194-.633-.3l-.207-.4a7.116,7.116,0,0,0,.646.306A22.779,22.779,0,0,0,17.3,29.823a22.206,22.206,0,0,0,12.1-3.423C29.664,26.237,29.909,26.063,30.168,25.88Z" transform="translate(-7.14 -25.88)" fill="#707070" stroke="#707070" stroke-width="0.3"/>
          </g>
        </g>
      </g>
    </g>
    <path id="Path_262" data-name="Path 262" d="M539.442,1351.351c2.507,2.507,9.736,9.684,9.736,9.684" transform="translate(-451.378 -1289.868)" fill="none" stroke="#707070" stroke-linecap="round" stroke-width="0.7"/>
  </g>
</svg>
