<svg xmlns="http://www.w3.org/2000/svg" width="16.425" height="21.775" viewBox="0 0 16.425 21.775">
  <g id="Group_261" data-name="Group 261" transform="translate(0.509 0.5)">
    <g id="Group_260" data-name="Group 260">
      <path id="Path_202" data-name="Path 202" d="M965.776,36.611H952.009a.817.817,0,0,1-.759-1.116l.574-1.505a.821.821,0,0,1,.768-.523H965.2a.821.821,0,0,1,.769.523l.573,1.505A.825.825,0,0,1,965.776,36.611Z" transform="translate(-951.191 -18.572)" fill="none" stroke="#2a3042" stroke-miterlimit="10" stroke-width="1"/>
      <path id="Path_203" data-name="Path 203" d="M960.969,35.915a2.728,2.728,0,0,1-2.736,2.736h-.655a2.742,2.742,0,0,1-2.736-2.736Z" transform="translate(-950.153 -17.876)" fill="none" stroke="#2a3042" stroke-miterlimit="10" stroke-width="1"/>
      <path id="Path_204" data-name="Path 204" d="M964.793,30.579v5.48H952.346v-5.48A6.232,6.232,0,0,1,956,24.9h.01a6.167,6.167,0,0,1,5.1,0h.021A6.233,6.233,0,0,1,964.793,30.579Z" transform="translate(-950.863 -21.164)" fill="none" stroke="#2a3042" stroke-miterlimit="10" stroke-width="1"/>
      <path id="Path_205" data-name="Path 205" d="M960.366,24.534v1.075h-.021a6.167,6.167,0,0,0-5.1,0h-.194V24.534a1.119,1.119,0,0,1,.01-.185,2.629,2.629,0,0,1,2.458-2.469,1.117,1.117,0,0,1,.185-.01,2.49,2.49,0,0,1,.276.01A2.667,2.667,0,0,1,960.366,24.534Z" transform="translate(-950.094 -21.87)" fill="none" stroke="#2a3042" stroke-miterlimit="10" stroke-width="1"/>
    </g>
  </g>
</svg>
