<svg xmlns="http://www.w3.org/2000/svg" width="47.026" height="35.916" viewBox="0 0 47.026 35.916">
  <path id="Path_307" data-name="Path 307" d="M211.343,913.41c-1.733,0-2.517,1.508-3.13,3.132l-.136.363h-9.808a2.953,2.953,0,0,0-2.959,2.959v26.5a2.952,2.952,0,0,0,2.959,2.959h41.108a2.952,2.952,0,0,0,2.959-2.959v-26.5a2.953,2.953,0,0,0-2.959-2.959h-9.807l-.136-.363c-.614-1.624-1.4-3.132-3.132-3.132Zm7.48,8.763a10.94,10.94,0,1,1-7.739,3.2,10.943,10.943,0,0,1,7.739-3.2Zm16.6,0a1.555,1.555,0,1,1-1.555,1.555,1.554,1.554,0,0,1,1.555-1.555Zm-16.6,1.466a9.477,9.477,0,1,0,9.476,9.477,9.487,9.487,0,0,0-9.476-9.477Zm0,1.32a8.157,8.157,0,1,1-8.159,8.157,8.146,8.146,0,0,1,8.159-8.157Zm0,0" transform="translate(-195.309 -913.41)"/>
</svg>
