<svg xmlns="http://www.w3.org/2000/svg" width="99" height="89.03" viewBox="0 0 99 89.03">
  <g id="Group_486" data-name="Group 486" transform="translate(-21.439 -17.239)">
    <g id="Rectangle_162" data-name="Rectangle 162" transform="translate(21.439 17.239)" fill="none" stroke="#707070" stroke-width="0.7" stroke-dasharray="4 2">
      <rect width="99" height="84" stroke="none"/>
      <rect x="0.35" y="0.35" width="98.3" height="83.3" fill="none"/>
    </g>
    <g id="Group_348" data-name="Group 348" transform="translate(78.978 24.722) rotate(60)">
      <g id="Group_342" data-name="Group 342" transform="translate(0.352 0.185)">
        <path id="Path_260" data-name="Path 260" d="M28.243,0q-1.206,0-2.388.032a.2.2,0,0,0,.005.4h.005Q27.041.4,28.243.4a.2.2,0,1,0,0-.4Zm2.382.029a.2.2,0,0,0-.005.4q1.2.03,2.377.092h.011a.2.2,0,0,0,.01-.4Q31.84.059,30.63.029Zm-7.146.1h-.011c-.8.042-1.6.1-2.383.162A.2.2,0,0,0,20.9.5a.184.184,0,0,0,.215.181C21.9.621,22.7.568,23.489.526a.2.2,0,0,0-.01-.4ZM35.385.28a.2.2,0,0,0-.015.4c.775.063,1.571.139,2.367.226a.192.192,0,0,0,.219-.176A.2.2,0,0,0,37.78.509C36.98.42,36.18.344,35.4.281ZM18.728.522h-.022c-.806.092-1.6.194-2.369.307a.2.2,0,0,0-.168.225.2.2,0,0,0,.225.168c.763-.111,1.556-.214,2.358-.305a.2.2,0,0,0-.023-.4ZM40.121.81a.2.2,0,0,0-.028.394c.795.116,1.584.245,2.346.383a.2.2,0,0,0,.23-.16.2.2,0,0,0-.16-.231c-.765-.139-1.559-.268-2.359-.385Zm-26.107.4a.186.186,0,0,0-.036,0c-.809.15-1.6.312-2.343.483a.2.2,0,0,0-.149.237.194.194,0,0,0,.237.15c.74-.17,1.524-.331,2.327-.479a.2.2,0,0,0-.036-.394Zm30.8.456a.2.2,0,0,0-.045.391c.8.183,1.575.378,2.3.582a.2.2,0,0,0,.108-.382c-.732-.206-1.512-.4-2.32-.587A.219.219,0,0,0,44.809,1.67ZM9.371,2.286a.189.189,0,0,0-.054.008c-.8.226-1.566.471-2.283.728a.2.2,0,0,0,.134.374c.709-.253,1.469-.5,2.257-.72a.2.2,0,0,0-.054-.39Zm40.021.684a.2.2,0,0,0-.066.386c.79.279,1.526.576,2.193.883a.2.2,0,1,0,.166-.361c-.677-.313-1.426-.615-2.227-.9A.2.2,0,0,0,49.392,2.97ZM4.9,3.911a.19.19,0,0,0-.084.018A15.872,15.872,0,0,0,2.7,5.1a.2.2,0,1,0,.22.33A15.481,15.481,0,0,1,4.979,4.289.2.2,0,0,0,4.9,3.911ZM53.692,5a.2.2,0,0,0-.109.365,7.991,7.991,0,0,1,1.759,1.5.2.2,0,0,0,.3-.255A8.39,8.39,0,0,0,53.8,5.032.2.2,0,0,0,53.692,5ZM1.034,6.629A.2.2,0,0,0,.879,6.7,3.6,3.6,0,0,0,0,8.957a.216.216,0,0,0,.2.217.184.184,0,0,0,.2-.18v-.05a3.206,3.206,0,0,1,.792-1.993.2.2,0,0,0-.031-.279A.2.2,0,0,0,1.034,6.629ZM56.4,8.882l-.2.041a3.233,3.233,0,0,1-.813,2.066.2.2,0,1,0,.308.25,3.612,3.612,0,0,0,.9-2.282ZM1.082,10.947a.2.2,0,0,0-.153.325,8.352,8.352,0,0,0,1.84,1.588.2.2,0,0,0,.219-.331,7.928,7.928,0,0,1-1.752-1.51A.2.2,0,0,0,1.082,10.947Zm52.674,1.527a.194.194,0,0,0-.11.033,15.837,15.837,0,0,1-2.058,1.136.2.2,0,0,0,.167.36,16.232,16.232,0,0,0,2.111-1.165.2.2,0,0,0-.11-.364ZM4.967,13.64a.2.2,0,0,0-.084.378c.672.313,1.421.615,2.225.9a.2.2,0,1,0,.133-.374c-.793-.282-1.53-.58-2.191-.886A.193.193,0,0,0,4.967,13.64Zm44.5.88a.221.221,0,0,0-.067.011c-.713.255-1.472.5-2.258.717a.2.2,0,0,0,.107.382c.794-.223,1.562-.467,2.284-.724a.2.2,0,0,0-.067-.386Zm-40.019.733a.2.2,0,0,0-.054.39c.736.207,1.517.405,2.32.588a.2.2,0,0,0,.237-.149.2.2,0,0,0-.149-.238c-.8-.181-1.571-.377-2.3-.583A.186.186,0,0,0,9.446,15.253Zm35.439.578a.174.174,0,0,0-.044.005c-.752.171-1.535.331-2.327.477a.2.2,0,1,0,.072.39c.8-.146,1.586-.308,2.343-.482a.2.2,0,0,0-.045-.391Zm-30.794.486a.2.2,0,0,0-.035.394c.772.141,1.566.272,2.359.386a.2.2,0,0,0,.225-.168.2.2,0,0,0-.168-.225c-.788-.114-1.577-.243-2.345-.384A.181.181,0,0,0,14.091,16.317ZM40.2,16.7l-.028,0c-.777.113-1.57.215-2.357.3a.2.2,0,0,0,.044.394c.792-.089,1.589-.191,2.37-.305A.2.2,0,0,0,40.2,16.7ZM18.805,17a.2.2,0,0,0-.021.4c.782.087,1.582.164,2.378.229a.187.187,0,0,0,.215-.181.2.2,0,0,0-.182-.214c-.793-.065-1.589-.142-2.368-.228Zm16.657.226h-.017c-.79.065-1.588.118-2.372.16a.2.2,0,0,0-.188.209.208.208,0,0,0,.209.188c.787-.041,1.59-.1,2.384-.161a.2.2,0,0,0-.016-.4Zm-11.906.163a.2.2,0,0,0-.01.4q1.177.062,2.387.094a.19.19,0,0,0,.2-.193.2.2,0,0,0-.193-.2q-1.2-.031-2.377-.094Zm7.147.092H30.7q-1.176.031-2.378.031a.2.2,0,0,0,0,.4q1.206,0,2.388-.031a.2.2,0,0,0-.005-.4Z" fill="#707070" stroke="#707070" stroke-width="0.3"/>
      </g>
      <g id="Group_343" data-name="Group 343" transform="translate(0 0)">
        <path id="Path_261" data-name="Path 261" d="M28.674,0a83.994,83.994,0,0,0-9.866.564C7.383,1.919,0,5.407,0,9.451a.384.384,0,0,0,.045.18L28.68,63.744,35.2,51.456,57.279,9.7a.725.725,0,0,0,.08-.245c0-3.749-6.338-7.037-16.541-8.582A81.476,81.476,0,0,0,28.674,0ZM.769,9.359C.893,5.821,8.147,2.6,18.9,1.325A83.437,83.437,0,0,1,28.674.767,80.764,80.764,0,0,1,40.7,1.628C50.265,3.075,56.475,6.1,56.59,9.359L28.674,62.151Z" fill="#707070"/>
      </g>
    </g>
  </g>
</svg>
