<svg xmlns="http://www.w3.org/2000/svg" width="99" height="84" viewBox="0 0 99 84">
  <g id="Group_483" data-name="Group 483" transform="translate(-21.436 -17.109)">
    <g id="Rectangle_159" data-name="Rectangle 159" transform="translate(21.436 17.109)" fill="none" stroke="#707070" stroke-width="0.7" stroke-dasharray="4 2">
      <rect width="99" height="84" stroke="none"/>
      <rect x="0.35" y="0.35" width="98.3" height="83.3" fill="none"/>
    </g>
    <g id="Group_344" data-name="Group 344" transform="translate(99.206 92.259) rotate(180)">
      <g id="Group_342" data-name="Group 342" transform="translate(0.352 45.646)">
        <path id="Path_260" data-name="Path 260" d="M28.243,17.914q-1.206,0-2.388-.032a.2.2,0,0,1,.005-.4h.005q1.176.031,2.378.032a.2.2,0,1,1,0,.4Zm2.382-.029a.2.2,0,0,1-.005-.4q1.2-.03,2.377-.092h.011a.2.2,0,0,1,.01.4q-1.177.062-2.387.092Zm-7.146-.1h-.011c-.8-.042-1.6-.1-2.383-.162a.2.2,0,0,1-.182-.214.184.184,0,0,1,.215-.181c.78.065,1.578.118,2.371.16a.2.2,0,0,1-.01.4Zm11.906-.151a.2.2,0,0,1-.015-.4c.775-.063,1.571-.139,2.367-.226a.192.192,0,0,1,.219.176.2.2,0,0,1-.176.219c-.8.088-1.6.165-2.378.228Zm-16.657-.242h-.022c-.806-.092-1.6-.194-2.369-.307a.2.2,0,0,1-.168-.225.2.2,0,0,1,.225-.168c.763.111,1.556.214,2.358.305a.2.2,0,0,1-.023.4ZM40.121,17.1a.2.2,0,0,1-.028-.394c.795-.116,1.584-.245,2.346-.383a.2.2,0,0,1,.23.16.2.2,0,0,1-.16.231c-.765.139-1.559.268-2.359.385Zm-26.107-.4a.189.189,0,0,1-.036,0c-.809-.15-1.6-.312-2.343-.483a.2.2,0,0,1-.149-.237.194.194,0,0,1,.237-.15c.74.169,1.524.331,2.327.479a.2.2,0,0,1-.036.394Zm30.8-.456a.2.2,0,0,1-.045-.391c.8-.183,1.575-.378,2.3-.582a.2.2,0,0,1,.108.382c-.732.206-1.512.4-2.32.587A.219.219,0,0,1,44.809,16.244ZM9.371,15.628a.188.188,0,0,1-.054-.008c-.8-.226-1.566-.471-2.283-.728a.2.2,0,0,1,.133-.374c.709.253,1.469.5,2.257.72a.2.2,0,0,1-.054.39Zm40.021-.684a.2.2,0,0,1-.066-.386c.79-.279,1.526-.576,2.193-.883a.2.2,0,1,1,.166.361c-.677.313-1.426.615-2.227.9A.2.2,0,0,1,49.392,14.944ZM4.9,14a.19.19,0,0,1-.084-.018A15.878,15.878,0,0,1,2.7,12.816a.2.2,0,1,1,.22-.33,15.482,15.482,0,0,0,2.055,1.139A.2.2,0,0,1,4.9,14Zm48.8-1.09a.2.2,0,0,1-.109-.365,7.991,7.991,0,0,0,1.759-1.5.2.2,0,0,1,.3.255,8.391,8.391,0,0,1-1.847,1.58A.2.2,0,0,1,53.692,12.914ZM1.034,11.285a.2.2,0,0,1-.155-.074A3.6,3.6,0,0,1,0,8.957.216.216,0,0,1,.2,8.74a.184.184,0,0,1,.2.18v.05a3.206,3.206,0,0,0,.792,1.993.2.2,0,0,1-.155.323ZM56.4,9.032l-.2-.041a3.233,3.233,0,0,0-.813-2.066.2.2,0,1,1,.308-.25,3.612,3.612,0,0,1,.9,2.282ZM1.082,6.967a.2.2,0,0,1-.153-.325,8.352,8.352,0,0,1,1.84-1.588.2.2,0,0,1,.219.331,7.929,7.929,0,0,0-1.752,1.51A.2.2,0,0,1,1.082,6.967ZM53.756,5.44a.194.194,0,0,1-.11-.033,15.83,15.83,0,0,0-2.058-1.136.2.2,0,0,1,.167-.36,16.226,16.226,0,0,1,2.111,1.165.2.2,0,0,1-.11.364ZM4.967,4.274A.2.2,0,0,1,4.883,3.9c.672-.313,1.421-.615,2.225-.9a.2.2,0,1,1,.133.374c-.793.282-1.53.58-2.191.886A.193.193,0,0,1,4.967,4.274Zm44.5-.88a.221.221,0,0,1-.067-.011c-.713-.255-1.472-.5-2.258-.717a.2.2,0,0,1,.107-.382c.794.223,1.562.467,2.284.724a.2.2,0,0,1-.067.386ZM9.446,2.661a.2.2,0,0,1-.054-.39c.736-.207,1.517-.405,2.32-.588a.2.2,0,0,1,.237.149.2.2,0,0,1-.149.238c-.8.181-1.571.378-2.3.583A.187.187,0,0,1,9.446,2.661Zm35.439-.578a.175.175,0,0,1-.044-.005c-.752-.171-1.535-.331-2.327-.477a.2.2,0,1,1,.072-.391c.8.146,1.586.308,2.343.482a.2.2,0,0,1-.045.391ZM14.091,1.6a.2.2,0,0,1-.035-.394c.772-.141,1.566-.272,2.359-.386a.2.2,0,0,1,.225.168.2.2,0,0,1-.168.225c-.788.114-1.577.243-2.345.384A.18.18,0,0,1,14.091,1.6ZM40.2,1.218l-.028,0C39.393,1.1,38.6,1,37.813.912a.2.2,0,0,1,.044-.394c.792.089,1.589.191,2.37.305a.2.2,0,0,1-.028.394ZM18.805.909a.2.2,0,0,1-.021-.4C19.566.427,20.366.35,21.162.285a.187.187,0,0,1,.215.181.2.2,0,0,1-.182.214c-.793.065-1.589.142-2.368.228ZM35.463.684h-.017c-.79-.065-1.588-.118-2.372-.16a.2.2,0,0,1-.188-.209.208.208,0,0,1,.209-.188c.787.041,1.59.1,2.384.161a.2.2,0,0,1-.016.4ZM23.556.52a.2.2,0,0,1-.01-.4Q24.724.061,25.933.03a.19.19,0,0,1,.2.193.2.2,0,0,1-.193.2q-1.2.031-2.377.094ZM30.7.428H30.7Q29.522.4,28.32.4a.2.2,0,0,1,0-.4q1.206,0,2.388.031a.2.2,0,0,1-.005.4Z" fill="#707070" stroke="#707070" stroke-width="0.3"/>
      </g>
      <g id="Group_343" data-name="Group 343" transform="translate(0 0)">
        <path id="Path_261" data-name="Path 261" d="M28.674,63.744a83.994,83.994,0,0,1-9.866-.564C7.383,61.826,0,58.338,0,54.293a.384.384,0,0,1,.045-.18L28.68,0,35.2,12.288,57.28,54.048a.725.725,0,0,1,.08.245c0,3.749-6.338,7.037-16.541,8.582A81.469,81.469,0,0,1,28.674,63.744ZM.769,54.385c.124,3.538,7.378,6.759,18.129,8.034a83.432,83.432,0,0,0,9.776.558A80.766,80.766,0,0,0,40.7,62.116c9.562-1.447,15.772-4.475,15.888-7.731L28.674,1.593Z" fill="#707070"/>
      </g>
    </g>
  </g>
</svg>
