<svg xmlns="http://www.w3.org/2000/svg" width="99" height="84" viewBox="0 0 99 84">
  <g id="Group_484" data-name="Group 484" transform="translate(-21.439 -17.109)">
    <g id="Rectangle_175" data-name="Rectangle 175" transform="translate(21.439 17.109)" fill="none" stroke="#707070" stroke-width="0.7" stroke-dasharray="4 2">
      <rect width="99" height="84" stroke="none"/>
      <rect x="0.35" y="0.35" width="98.3" height="83.3" fill="none"/>
    </g>
    <g id="Group_364" data-name="Group 364" transform="translate(69.869 79.978) rotate(-180)">
      <g id="Group_342" data-name="Group 342" transform="translate(0.05 0.036)">
        <path id="Path_260" data-name="Path 260" d="M5.374,0q-.23,0-.455.006a.038.038,0,0,0,0,.077h0q.224-.006.452-.006A.038.038,0,0,0,5.412.039.038.038,0,0,0,5.374,0Zm.453.006a.039.039,0,0,0,0,.077q.229.006.452.018h0a.039.039,0,0,0,0-.077Q6.059.011,5.829.006ZM4.468.025h0c-.152.008-.3.019-.453.031A.038.038,0,0,0,3.978.1a.035.035,0,0,0,.041.035C4.167.12,4.319.11,4.47.1a.039.039,0,0,0,0-.077ZM6.733.054a.039.039,0,0,0,0,.077c.147.012.3.027.45.044A.037.037,0,0,0,7.223.141.038.038,0,0,0,7.189.1c-.152-.017-.3-.032-.453-.044ZM3.564.1h0c-.153.018-.305.038-.451.06A.038.038,0,0,0,3.077.2a.037.037,0,0,0,.043.033c.145-.022.3-.041.449-.059a.038.038,0,0,0,0-.077ZM7.635.157a.038.038,0,0,0-.005.076c.151.022.3.047.446.074A.037.037,0,0,0,8.119.277.039.039,0,0,0,8.089.232C7.943.205,7.792.18,7.64.157ZM2.667.235H2.66c-.154.029-.3.061-.446.094a.038.038,0,0,0-.028.046A.037.037,0,0,0,2.231.4c.141-.033.29-.064.443-.093A.039.039,0,0,0,2.7.267.038.038,0,0,0,2.667.235Zm5.86.088a.038.038,0,0,0-.037.03A.038.038,0,0,0,8.518.4c.153.035.3.073.438.113A.037.037,0,0,0,9,.486.039.039,0,0,0,8.977.439C8.837.4,8.689.36,8.535.325ZM1.783.443h-.01c-.152.044-.3.091-.434.141a.038.038,0,0,0-.023.049.037.037,0,0,0,.048.023c.135-.049.279-.1.43-.14A.039.039,0,0,0,1.82.471.038.038,0,0,0,1.783.443ZM9.4.576A.038.038,0,0,0,9.363.6a.039.039,0,0,0,.023.049c.15.054.29.112.417.171A.038.038,0,0,0,9.854.8.039.039,0,0,0,9.835.752C9.706.691,9.564.633,9.411.578ZM.931.758a.036.036,0,0,0-.016,0,3,3,0,0,0-.4.227A.039.039,0,0,0,.5,1.042a.037.037,0,0,0,.052.011A2.93,2.93,0,0,1,.947.832.039.039,0,0,0,.966.78.038.038,0,0,0,.931.758Zm9.285.211a.037.037,0,0,0-.032.018.039.039,0,0,0,.011.053,1.529,1.529,0,0,1,.335.291.037.037,0,0,0,.053,0,.039.039,0,0,0,0-.054,1.605,1.605,0,0,0-.351-.306A.038.038,0,0,0,10.217.969ZM.2,1.285A.038.038,0,0,0,.167,1.3.705.705,0,0,0,0,1.737a.042.042,0,0,0,.038.042.035.035,0,0,0,.038-.035v-.01a.628.628,0,0,1,.151-.386A.039.039,0,0,0,.22,1.294.038.038,0,0,0,.2,1.285Zm10.536.437-.038.008a.634.634,0,0,1-.155.4.039.039,0,0,0,.006.054.037.037,0,0,0,.053-.006.708.708,0,0,0,.172-.442Zm-10.527.4a.038.038,0,0,0-.024.009.039.039,0,0,0,0,.054,1.6,1.6,0,0,0,.35.308.037.037,0,0,0,.052-.011.039.039,0,0,0-.011-.053,1.517,1.517,0,0,1-.333-.293A.038.038,0,0,0,.206,2.122Zm10.023.3a.036.036,0,0,0-.021.006,3,3,0,0,1-.392.22A.039.039,0,0,0,9.8,2.7a.037.037,0,0,0,.05.019,3.072,3.072,0,0,0,.4-.226.039.039,0,0,0,.011-.053A.037.037,0,0,0,10.229,2.419ZM.945,2.645a.038.038,0,0,0-.034.022.039.039,0,0,0,.018.051c.128.061.27.119.423.175A.038.038,0,0,0,1.4,2.869a.039.039,0,0,0-.023-.049c-.151-.055-.291-.112-.417-.172A.036.036,0,0,0,.945,2.645Zm8.467.171-.013,0c-.136.049-.28.1-.43.139A.039.039,0,0,0,8.944,3a.037.037,0,0,0,.047.027c.151-.043.3-.091.435-.14a.039.039,0,0,0,.023-.049A.038.038,0,0,0,9.413,2.815ZM1.8,2.957a.038.038,0,0,0-.036.028.039.039,0,0,0,.026.048c.14.04.289.079.442.114a.037.037,0,0,0,.045-.029.038.038,0,0,0-.028-.046c-.152-.035-.3-.073-.438-.113Zm6.744.112H8.533c-.143.033-.292.064-.443.093a.039.039,0,0,0-.03.045.038.038,0,0,0,.044.031c.152-.028.3-.06.446-.093A.038.038,0,0,0,8.578,3.1.038.038,0,0,0,8.541,3.069Zm-5.86.094a.038.038,0,0,0-.037.032.039.039,0,0,0,.03.045c.147.027.3.053.449.075a.037.037,0,0,0,.043-.033.038.038,0,0,0-.032-.044c-.15-.022-.3-.047-.446-.075Zm4.968.074H7.644c-.148.022-.3.042-.449.059a.038.038,0,0,0-.033.042.038.038,0,0,0,.042.034c.151-.017.3-.037.451-.059a.038.038,0,0,0,.032-.044A.038.038,0,0,0,7.649,3.237ZM3.578,3.3a.039.039,0,0,0,0,.077c.149.017.3.032.452.044a.036.036,0,0,0,.041-.035.038.038,0,0,0-.035-.041c-.151-.013-.3-.028-.451-.044Zm3.17.044h0c-.15.013-.3.023-.451.031a.038.038,0,0,0-.036.04.04.04,0,0,0,.04.036c.15-.008.3-.019.454-.031a.038.038,0,0,0,0-.077Zm-2.266.032a.039.039,0,0,0,0,.077q.224.012.454.018a.036.036,0,0,0,.039-.037.038.038,0,0,0-.037-.039q-.229-.006-.452-.018Zm1.36.018h0q-.224.006-.452.006a.038.038,0,0,0,0,.077q.23,0,.454-.006a.038.038,0,0,0,0-.077Z" fill="none" stroke="#707070" stroke-width="0.2"/>
      </g>
      <g id="Group_343" data-name="Group 343" transform="translate(0 0)">
        <path id="Path_261" data-name="Path 261" d="M5.438,0A12.714,12.714,0,0,0,3.567.134C1.4.457,0,1.289,0,2.253A.111.111,0,0,0,.009,2.3l5.43,12.9,1.236-2.93,4.188-9.955a.205.205,0,0,0,.015-.059c0-.894-1.2-1.678-3.137-2.046A12.356,12.356,0,0,0,5.438,0ZM.146,2.231C.169,1.388,1.545.62,3.584.316A12.629,12.629,0,0,1,5.438.183,12.248,12.248,0,0,1,7.719.388c1.813.345,2.991,1.067,3.013,1.843L5.438,14.817Z" fill="#707070" stroke="#707070" stroke-width="0.5"/>
      </g>
    </g>
    <g id="Group_361" data-name="Group 361" transform="translate(44.825 33.619)">
      <path id="Path_290" data-name="Path 290" d="M27.543,69.723H-8.767a.471.471,0,0,1-.472-.472V25.436a.472.472,0,0,1,.472-.472H27.543a.472.472,0,0,1,.472.472V69.251A.471.471,0,0,1,27.543,69.723ZM-8.3,68.779H27.071V25.908H-8.3Z" transform="translate(15.684 -22.145)" fill="#707070"/>
      <path id="Path_291" data-name="Path 291" d="M29.147,69.723H-13.119a.472.472,0,0,1-.472-.472V25.436a.472.472,0,0,1,.472-.472H29.147a.472.472,0,0,1,.472.472V69.251A.472.472,0,0,1,29.147,69.723Zm-41.795-.944H28.675V25.908H-12.647Z" transform="translate(17.057 -22.145)" fill="#707070"/>
      <path id="Path_292" data-name="Path 292" d="M31.015,24.608h-49.2a.471.471,0,0,1-.472-.472V21.317a.471.471,0,0,1,.472-.472h49.2a.472.472,0,0,1,.472.472v2.819A.472.472,0,0,1,31.015,24.608Zm-48.728-.944H30.544V21.789H-17.713Z" transform="translate(18.656 -20.845)" fill="#707070"/>
      <path id="Path_293" data-name="Path 293" d="M31.015,92.749h-49.2a.471.471,0,0,1-.472-.472V89.458a.472.472,0,0,1,.472-.472h49.2a.472.472,0,0,1,.472.472v2.819A.472.472,0,0,1,31.015,92.749ZM-17.713,91.8H30.544V89.93H-17.713Z" transform="translate(18.656 -42.352)" fill="#707070"/>
      <path id="Path_294" data-name="Path 294" d="M-6.027,69.811a10.811,10.811,0,0,1-2.88-.424.472.472,0,0,1-.333-.451v-43.5a.472.472,0,0,1,.472-.472H3.877a.473.473,0,0,1,.472.475C4.262,40.45-5.482,45.6-8.024,46.681c3.286,4.978,5.164,21.1,5.245,21.808a.471.471,0,0,1-.17.42A4.838,4.838,0,0,1-6.027,69.811ZM-8.3,68.574c.856.21,3.168.653,4.546-.249C-4,66.282-5.662,53.29-8.3,48.092Zm0-42.667V45.772C-5.841,44.7,3.121,39.846,3.4,25.908Z" transform="translate(15.684 -22.145)" fill="#707070"/>
      <path id="Path_295" data-name="Path 295" d="M-2.641,38.5a.465.465,0,0,1-.273-.088.47.47,0,0,1-.111-.658A23.361,23.361,0,0,0,1.015,25.441a.471.471,0,0,1,.468-.476.464.464,0,0,1,.476.467A23.875,23.875,0,0,1-2.257,38.3.47.47,0,0,1-2.641,38.5Z" transform="translate(13.75 -22.145)" fill="#707070"/>
      <path id="Path_297" data-name="Path 297" d="M35.716,69.811a4.84,4.84,0,0,1-3.077-.9.473.473,0,0,1-.17-.42c.081-.708,1.959-16.829,5.246-21.808C35.172,45.6,25.428,40.45,25.341,25.439a.473.473,0,0,1,.472-.475H38.457a.472.472,0,0,1,.472.472v43.5a.472.472,0,0,1-.332.451A10.813,10.813,0,0,1,35.716,69.811Zm-2.278-1.486c1.381.905,3.691.461,4.547.249V48.092C35.351,53.289,33.687,66.282,33.439,68.325ZM26.291,25.908c.279,13.965,9.24,18.8,11.695,19.866V25.908Z" transform="translate(4.769 -22.145)" fill="#707070"/>
      <path id="Path_298" data-name="Path 298" d="M36.259,38.5a.47.47,0,0,1-.385-.2,23.882,23.882,0,0,1-4.215-12.872.507.507,0,0,1,.476-.467.471.471,0,0,1,.467.476,23.359,23.359,0,0,0,4.04,12.317.472.472,0,0,1-.384.745Z" transform="translate(2.775 -22.145)" fill="#707070"/>
    </g>
    <g id="Group_362" data-name="Group 362" transform="translate(71.313 64.782)">
      <g id="Rectangle_171" data-name="Rectangle 171" transform="translate(0.126 5.327)" fill="none" stroke="#707070" stroke-width="1">
        <rect width="10" height="10" stroke="none"/>
        <rect x="0.5" y="0.5" width="9" height="9" fill="none"/>
      </g>
      <path id="Path_299" data-name="Path 299" d="M425,1003.84v-5.257" transform="translate(-419.655 -998.327)" fill="none" stroke="#707070" stroke-linecap="round" stroke-width="1"/>
      <path id="Path_300" data-name="Path 300" d="M425.467,1001.109l3.2-2.731" transform="translate(-419.75 -998.378)" fill="none" stroke="#707070" stroke-linecap="round" stroke-width="1"/>
      <path id="Path_301" data-name="Path 301" d="M425.646,1002.778l-3.3-2.857" transform="translate(-420.3 -998.002)" fill="none" stroke="#707070" stroke-linecap="round" stroke-width="1"/>
    </g>
  </g>
</svg>
