<svg xmlns="http://www.w3.org/2000/svg" width="21.18" height="15.047" viewBox="0 0 21.18 15.047">
  <g id="Group_471" data-name="Group 471" transform="translate(-141.336 -127.978)">
    <path id="Path_265" data-name="Path 265" d="M148.965,133.411a.4.4,0,0,0,.01-.052V119.73s0-.007,0-.01a.405.405,0,0,0-.025-.136l0-.007a.273.273,0,0,0-.016-.027.388.388,0,0,0-.063-.093.442.442,0,0,0-.033-.031.4.4,0,0,0-.083-.056.338.338,0,0,0-.04-.02.4.4,0,0,0-.143-.029H128.8a.406.406,0,0,0-.143.029.531.531,0,0,0-.123.076.361.361,0,0,0-.033.031.4.4,0,0,0-.063.092c0,.01-.012.018-.016.028l0,.007a.4.4,0,0,0-.025.136s0,.007,0,.01v13.629a81.309,81.309,0,0,0,.031.153.422.422,0,0,0,.055.087.465.465,0,0,0,.029.044l0,0a.4.4,0,0,0,.291.123h19.765a.424.424,0,0,0,.156-.031.414.414,0,0,0,.133-.091l0,0a.372.372,0,0,0,.028-.044.406.406,0,0,0,.056-.087A.392.392,0,0,0,148.965,133.411Zm-12.834-6.564,2.282,2.047a.409.409,0,0,0,.546,0l2.282-2.047,6.316,6.1H129.816Zm-6.918,5.549V120.645l6.308,5.655Zm12.638-6.1,6.307-5.655V132.4Zm5.648-6.162-8.814,7.9-8.813-7.9Z" transform="translate(13.24 8.957)" fill="#707070" stroke="#707070" stroke-width="0.6"/>
  </g>
</svg>
