<svg xmlns="http://www.w3.org/2000/svg" width="99" height="84" viewBox="0 0 99 84">
  <g id="Group_345" data-name="Group 345" transform="translate(-0.044 0.21)">
    <g id="Rectangle_159" data-name="Rectangle 159" transform="translate(0.044 -0.21)" fill="none" stroke="#707070" stroke-width="0.7" stroke-dasharray="4 2">
      <rect width="99" height="84" stroke="none"/>
      <rect x="0.35" y="0.35" width="98.3" height="83.3" fill="none"/>
    </g>
    <g id="Group_344" data-name="Group 344" transform="translate(20.453 9.158)">
      <g id="Group_342" data-name="Group 342" transform="translate(0.352 45.646)">
        <path id="Path_260" data-name="Path 260" d="M-40.271,642.535q-1.206,0-2.388-.032a.2.2,0,0,1-.193-.2.2.2,0,0,1,.2-.193h.005q1.176.031,2.378.032a.2.2,0,0,1,.2.2A.2.2,0,0,1-40.271,642.535Zm2.382-.029a.2.2,0,0,1-.2-.193.2.2,0,0,1,.193-.2q1.2-.03,2.377-.092h.011a.2.2,0,0,1,.2.188.2.2,0,0,1-.188.209q-1.177.062-2.387.092Zm-7.146-.1h-.011c-.8-.042-1.6-.1-2.383-.162a.2.2,0,0,1-.182-.214.184.184,0,0,1,.215-.181c.78.065,1.578.118,2.371.16a.2.2,0,0,1,.189.209A.2.2,0,0,1-45.035,642.406Zm11.906-.151a.2.2,0,0,1-.2-.183.2.2,0,0,1,.182-.214c.775-.063,1.571-.139,2.367-.226a.192.192,0,0,1,.219.176.2.2,0,0,1-.176.219c-.8.088-1.6.165-2.378.228Zm-16.657-.242h-.022c-.806-.092-1.6-.194-2.369-.307a.2.2,0,0,1-.168-.225.2.2,0,0,1,.225-.168c.763.111,1.556.214,2.358.305a.2.2,0,0,1,.174.22A.2.2,0,0,1-49.786,642.013Zm21.393-.289a.2.2,0,0,1-.2-.17.2.2,0,0,1,.168-.225c.795-.116,1.584-.245,2.346-.383a.2.2,0,0,1,.23.16.2.2,0,0,1-.16.231c-.765.139-1.559.268-2.359.385Zm-26.107-.4a.189.189,0,0,1-.036,0c-.809-.15-1.6-.312-2.343-.483a.2.2,0,0,1-.149-.237.194.194,0,0,1,.237-.15c.74.169,1.524.331,2.327.479a.2.2,0,0,1,.16.232A.2.2,0,0,1-54.5,641.32Zm30.8-.456a.2.2,0,0,1-.193-.154.2.2,0,0,1,.149-.237c.8-.183,1.575-.378,2.3-.582a.2.2,0,0,1,.245.137.2.2,0,0,1-.137.245c-.732.206-1.512.4-2.32.587A.219.219,0,0,1-23.7,640.865Zm-35.438-.615a.188.188,0,0,1-.054-.008c-.8-.226-1.566-.471-2.283-.728a.2.2,0,0,1-.12-.253.2.2,0,0,1,.253-.12c.709.253,1.469.5,2.257.72a.2.2,0,0,1,.137.245A.2.2,0,0,1-59.143,640.249Zm40.021-.684a.2.2,0,0,1-.187-.133.2.2,0,0,1,.121-.253c.79-.279,1.526-.576,2.193-.883a.2.2,0,0,1,.263.1.2.2,0,0,1-.1.263c-.677.313-1.426.615-2.227.9A.2.2,0,0,1-19.122,639.565Zm-44.5-.941a.19.19,0,0,1-.084-.018,15.878,15.878,0,0,1-2.108-1.169.2.2,0,0,1-.055-.275.2.2,0,0,1,.275-.055,15.482,15.482,0,0,0,2.055,1.139.2.2,0,0,1,.1.264A.2.2,0,0,1-63.619,638.624Zm48.8-1.09a.2.2,0,0,1-.166-.091.2.2,0,0,1,.058-.275,7.991,7.991,0,0,0,1.759-1.5.2.2,0,0,1,.279-.025.2.2,0,0,1,.025.279,8.391,8.391,0,0,1-1.847,1.58A.2.2,0,0,1-14.822,637.535Zm-52.658-1.629a.2.2,0,0,1-.155-.074,3.6,3.6,0,0,1-.879-2.254.216.216,0,0,1,.2-.217.184.184,0,0,1,.2.18v.05a3.206,3.206,0,0,0,.792,1.993.2.2,0,0,1-.031.279A.2.2,0,0,1-67.48,635.906Zm55.367-2.253-.2-.041a3.233,3.233,0,0,0-.813-2.066.2.2,0,0,1,.029-.279.2.2,0,0,1,.279.029,3.612,3.612,0,0,1,.9,2.282Zm-55.319-2.066a.2.2,0,0,1-.127-.046.2.2,0,0,1-.026-.279,8.352,8.352,0,0,1,1.84-1.588.2.2,0,0,1,.275.057.2.2,0,0,1-.056.275,7.929,7.929,0,0,0-1.752,1.51A.2.2,0,0,1-67.432,631.588Zm52.674-1.527a.194.194,0,0,1-.11-.033,15.831,15.831,0,0,0-2.058-1.136.2.2,0,0,1-.1-.264.2.2,0,0,1,.263-.1,16.226,16.226,0,0,1,2.111,1.165.2.2,0,0,1,.055.275A.2.2,0,0,1-14.758,630.061Zm-48.789-1.166a.2.2,0,0,1-.18-.115.2.2,0,0,1,.1-.263c.672-.313,1.421-.615,2.225-.9a.2.2,0,0,1,.254.12.2.2,0,0,1-.12.254c-.793.282-1.53.58-2.191.886A.193.193,0,0,1-63.547,628.895Zm44.5-.88a.221.221,0,0,1-.067-.011c-.713-.255-1.472-.5-2.258-.717a.2.2,0,0,1-.137-.245.2.2,0,0,1,.245-.137c.794.223,1.562.467,2.284.724a.2.2,0,0,1,.12.254A.2.2,0,0,1-19.049,628.015Zm-40.019-.733a.2.2,0,0,1-.191-.144.2.2,0,0,1,.137-.245c.736-.207,1.517-.405,2.32-.588a.2.2,0,0,1,.237.149.2.2,0,0,1-.149.238c-.8.181-1.571.378-2.3.583A.187.187,0,0,1-59.068,627.282Zm35.439-.578a.175.175,0,0,1-.044-.005c-.752-.171-1.535-.331-2.327-.477a.2.2,0,0,1-.16-.231.2.2,0,0,1,.232-.16c.8.146,1.586.308,2.343.482a.2.2,0,0,1,.149.237A.2.2,0,0,1-23.629,626.7Zm-30.794-.486a.2.2,0,0,1-.195-.163.2.2,0,0,1,.16-.232c.772-.141,1.566-.272,2.359-.386a.2.2,0,0,1,.225.168.2.2,0,0,1-.168.225c-.788.114-1.577.243-2.345.384A.18.18,0,0,1-54.423,626.218Zm26.108-.38-.028,0c-.777-.113-1.57-.215-2.357-.3a.2.2,0,0,1-.175-.219.2.2,0,0,1,.219-.176c.792.089,1.589.191,2.37.305a.2.2,0,0,1,.168.225A.2.2,0,0,1-28.315,625.839Zm-21.393-.308a.2.2,0,0,1-.2-.177.2.2,0,0,1,.176-.219c.782-.087,1.582-.164,2.378-.229a.187.187,0,0,1,.215.181.2.2,0,0,1-.182.214c-.793.065-1.589.142-2.368.228Zm16.657-.226h-.017c-.79-.065-1.588-.118-2.372-.16a.2.2,0,0,1-.188-.209.208.208,0,0,1,.209-.188c.787.041,1.59.1,2.384.161a.2.2,0,0,1,.182.214A.2.2,0,0,1-33.051,625.3Zm-11.906-.163a.2.2,0,0,1-.2-.188.2.2,0,0,1,.188-.209q1.177-.062,2.387-.094a.19.19,0,0,1,.2.193.2.2,0,0,1-.193.2q-1.2.031-2.377.094Zm7.147-.092h-.005q-1.176-.031-2.378-.031a.2.2,0,0,1-.2-.2.2.2,0,0,1,.2-.2q1.206,0,2.388.031a.2.2,0,0,1,.193.2A.2.2,0,0,1-37.811,625.049Z" transform="translate(68.514 -624.621)" fill="#707070" stroke="#707070" stroke-width="0.3"/>
      </g>
      <g id="Group_343" data-name="Group 343" transform="translate(0 0)">
        <path id="Path_261" data-name="Path 261" d="M-40.3,628.873a83.994,83.994,0,0,1-9.866-.564c-11.425-1.355-18.808-4.843-18.808-8.887a.384.384,0,0,1,.045-.18l28.635-54.114,6.517,12.288,22.082,41.76a.725.725,0,0,1,.08.245c0,3.749-6.338,7.037-16.541,8.582A81.469,81.469,0,0,1-40.3,628.873ZM-68.2,619.514c.124,3.538,7.378,6.759,18.129,8.034a83.432,83.432,0,0,0,9.776.558,80.766,80.766,0,0,0,12.029-.861c9.562-1.447,15.772-4.475,15.888-7.731L-40.3,566.722Z" transform="translate(68.973 -565.129)" fill="#707070"/>
      </g>
    </g>
  </g>
</svg>
