<svg xmlns="http://www.w3.org/2000/svg" width="22.979" height="23.135" viewBox="0 0 22.979 23.135">
  <g id="Group_472" data-name="Group 472" transform="translate(-531.125 -130.977)">
    <path id="Path_332" data-name="Path 332" d="M565.983,158.432l-7.554,7.554-9.388-9.388.082-7.472,7.472-.083Z" transform="translate(-12.94 -12.935)" fill="none" stroke="#707070" stroke-miterlimit="10" stroke-width="1.5"/>
    <circle id="Ellipse_34" data-name="Ellipse 34" cx="1.474" cy="1.474" r="1.474" transform="translate(538.415 138.423)" fill="none" stroke="#707070" stroke-miterlimit="10" stroke-width="1.5"/>
    <path id="Path_333" data-name="Path 333" d="M538.417,139.864a1.264,1.264,0,0,0,1.437-1.439,4.938,4.938,0,0,0-.8-2.264,10.214,10.214,0,0,0-1.528-1.928c-2-2-4.364-2.886-5.275-1.975s-.027,3.271,1.977,5.273a10.234,10.234,0,0,0,1.928,1.53" transform="translate(0)" fill="none" stroke="#707070" stroke-miterlimit="10" stroke-width="1.5"/>
  </g>
</svg>
