<svg xmlns="http://www.w3.org/2000/svg" width="22.518" height="22.514" viewBox="0 0 22.518 22.514">
  <path id="Path_212" data-name="Path 212" d="M47.9,537.582l0-2.513-2.579-.861a8.021,8.021,0,0,0-.816-1.986l1.222-2.447L43.958,528l-2.436,1.213a7.858,7.858,0,0,0-1.98-.829l-.867-2.591H36.168l-.862,2.575a8.011,8.011,0,0,0-1.984.816l-2.447-1.222L29.1,529.739l1.213,2.436a7.831,7.831,0,0,0-.829,1.98l-2.591.861,0,2.514,2.579.861a7.991,7.991,0,0,0,.816,1.984l-1.222,2.449,1.775,1.775,2.436-1.214a7.911,7.911,0,0,0,1.981.827l.861,2.592,2.514,0,.861-2.578a8.02,8.02,0,0,0,1.984-.817l2.447,1.222L45.7,542.86l-1.215-2.436a7.852,7.852,0,0,0,.829-1.98ZM37.4,542.04a5.74,5.74,0,1,1,5.741-5.741A5.74,5.74,0,0,1,37.4,542.04Z" transform="translate(-26.138 -525.044)" fill="none" stroke="#707070" stroke-linecap="round" stroke-linejoin="round" stroke-miterlimit="10" stroke-width="1.5"/>
</svg>
