<svg xmlns="http://www.w3.org/2000/svg" width="99" height="83" viewBox="0 0 99 83">
  <g id="Group_483" data-name="Group 483" transform="translate(-21.441 -17.369)">
    <g id="Rectangle_169" data-name="Rectangle 169" transform="translate(21.441 17.369)" fill="none" stroke="#707070" stroke-width="0.7" stroke-dasharray="4 2">
      <rect width="99" height="83" stroke="none"/>
      <rect x="0.35" y="0.35" width="98.3" height="82.3" fill="none"/>
    </g>
    <g id="Group_359" data-name="Group 359" transform="translate(28.525 37.096)">
      <g id="Group_356" data-name="Group 356" transform="translate(29.953 33.287) rotate(-180)">
        <g id="Group_342" data-name="Group 342" transform="translate(0.184 0.097)">
          <path id="Path_260" data-name="Path 260" d="M14.748,0q-.63,0-1.247.017a.1.1,0,0,0,0,.207h0q.614-.016,1.242-.017a.1.1,0,1,0,0-.207Zm1.244.015a.1.1,0,0,0,0,.208q.629.016,1.241.048h.006a.1.1,0,0,0,.005-.208Q16.627.031,16,.015ZM12.261.067h-.006c-.416.022-.835.05-1.244.085a.1.1,0,0,0-.095.112.1.1,0,0,0,.112.095c.407-.034.824-.062,1.238-.084a.1.1,0,0,0-.005-.207Zm6.217.079a.1.1,0,0,0-.008.207c.4.033.821.072,1.236.118A.1.1,0,0,0,19.82.38a.1.1,0,0,0-.092-.114C19.311.22,18.893.18,18.486.147ZM9.78.272H9.768c-.421.048-.837.1-1.237.16a.1.1,0,0,0-.088.117.1.1,0,0,0,.117.088c.4-.058.813-.112,1.231-.159A.1.1,0,0,0,9.78.272ZM20.951.423a.1.1,0,0,0-.015.206c.415.06.827.128,1.225.2a.1.1,0,0,0,.12-.084A.1.1,0,0,0,22.2.625c-.4-.073-.814-.14-1.232-.2ZM7.318.634,7.3.636C6.877.714,6.465.8,6.076.888A.1.1,0,0,0,6,1.012a.1.1,0,0,0,.124.078C6.508,1,6.917.918,7.337.84A.1.1,0,0,0,7.318.634ZM23.4.872a.1.1,0,0,0-.023.2c.419.1.823.2,1.2.3a.1.1,0,0,0,.056-.2c-.382-.107-.79-.211-1.212-.307ZM4.894,1.194a.1.1,0,0,0-.028,0c-.417.118-.818.246-1.192.38a.1.1,0,0,0,.07.2c.37-.132.767-.259,1.179-.376a.1.1,0,0,0-.028-.2Zm20.9.357a.1.1,0,0,0-.034.2c.412.145.8.3,1.145.461a.1.1,0,1,0,.087-.188c-.353-.163-.744-.321-1.163-.468A.1.1,0,0,0,25.793,1.551ZM2.556,2.042a.1.1,0,0,0-.044.01,8.288,8.288,0,0,0-1.1.61.1.1,0,1,0,.115.172A8.084,8.084,0,0,1,2.6,2.24a.1.1,0,0,0-.044-.2Zm25.482.569a.1.1,0,0,0-.057.191,4.173,4.173,0,0,1,.919.784.1.1,0,0,0,.159-.133,4.381,4.381,0,0,0-.964-.825A.1.1,0,0,0,28.038,2.611ZM.54,3.462A.1.1,0,0,0,.459,3.5,1.879,1.879,0,0,0,0,4.677a.113.113,0,0,0,.1.113.1.1,0,0,0,.1-.094V4.671A1.674,1.674,0,0,1,.621,3.63a.1.1,0,0,0-.016-.146A.105.105,0,0,0,.54,3.462ZM29.453,4.638l-.1.021a1.689,1.689,0,0,1-.425,1.079.1.1,0,1,0,.161.131,1.886,1.886,0,0,0,.472-1.192ZM.565,5.717a.1.1,0,0,0-.08.17,4.362,4.362,0,0,0,.961.829.1.1,0,0,0,.114-.173,4.14,4.14,0,0,1-.915-.789A.1.1,0,0,0,.565,5.717Zm27.507.8a.1.1,0,0,0-.058.017,8.27,8.27,0,0,1-1.075.593.1.1,0,0,0,.087.188,8.477,8.477,0,0,0,1.1-.608.1.1,0,0,0-.057-.19ZM2.594,7.123a.1.1,0,0,0-.044.2c.351.163.742.321,1.162.471a.1.1,0,1,0,.07-.2c-.414-.147-.8-.3-1.144-.463A.1.1,0,0,0,2.594,7.123Zm23.237.46a.115.115,0,0,0-.035.006c-.372.133-.769.259-1.179.375a.1.1,0,0,0,.056.2c.415-.117.816-.244,1.193-.378a.1.1,0,0,0-.035-.2Zm-20.9.383a.1.1,0,0,0-.028.2c.384.108.792.212,1.212.307A.1.1,0,0,0,6.239,8.4a.1.1,0,0,0-.078-.124c-.416-.095-.82-.2-1.2-.3A.1.1,0,0,0,4.933,7.965Zm18.506.3a.091.091,0,0,0-.023,0c-.393.089-.8.173-1.215.249a.1.1,0,1,0,.038.2c.417-.076.828-.161,1.224-.252a.1.1,0,0,0-.023-.2ZM7.358,8.52a.1.1,0,0,0-.018.206c.4.074.818.142,1.232.2a.1.1,0,0,0,.117-.088A.1.1,0,0,0,8.6,8.723c-.411-.06-.824-.127-1.224-.2Zm13.634.2h-.015c-.406.059-.82.112-1.231.158a.1.1,0,0,0,.023.206c.413-.046.83-.1,1.238-.159a.1.1,0,0,0-.015-.206ZM9.82,8.88a.1.1,0,0,0-.011.207c.408.045.826.085,1.242.119a.1.1,0,0,0,.112-.095A.1.1,0,0,0,11.068,9c-.414-.034-.83-.074-1.236-.119Zm8.7.118H18.51c-.413.034-.829.062-1.238.083a.1.1,0,0,0-.1.109.109.109,0,0,0,.109.1c.411-.022.83-.05,1.245-.084A.1.1,0,0,0,18.519,9ZM12.3,9.083a.1.1,0,0,0-.005.207q.615.032,1.246.049a.1.1,0,0,0,.107-.1.1.1,0,0,0-.1-.106q-.629-.016-1.241-.049Zm3.732.048h0q-.614.016-1.242.016a.1.1,0,0,0,0,.207q.63,0,1.247-.016a.1.1,0,0,0,0-.207Z" transform="translate(0 0)" fill="#707070" stroke="#707070" stroke-width="0.3"/>
        </g>
        <g id="Group_343" data-name="Group 343" transform="translate(0 0)">
          <path id="Path_261" data-name="Path 261" d="M14.973,0A43.862,43.862,0,0,0,9.821.294C3.855,1,0,2.823,0,4.935a.2.2,0,0,0,.024.094L14.977,33.287l3.4-6.417L29.911,5.063a.378.378,0,0,0,.042-.128c0-1.958-3.31-3.675-8.638-4.481A42.547,42.547,0,0,0,14.973,0ZM.4,4.887C.466,3.04,4.254,1.358,9.868.692A43.571,43.571,0,0,1,14.973.4a42.175,42.175,0,0,1,6.282.45c4.993.756,8.236,2.337,8.3,4.037L14.973,32.455Z" fill="#707070" stroke="rgba(0,0,0,0)" stroke-width="1"/>
        </g>
      </g>
      <g id="Group_357" data-name="Group 357" transform="translate(60.549 33.287) rotate(-180)">
        <g id="Group_342-2" data-name="Group 342" transform="translate(0.162 0.085)">
          <path id="Path_260-2" data-name="Path 260" d="M12.97,0q-.554,0-1.1.015a.091.091,0,0,0,0,.182h0q.54-.014,1.092-.015a.091.091,0,1,0,0-.182Zm1.094.013a.091.091,0,0,0,0,.183q.553.014,1.092.042h0a.091.091,0,0,0,0-.183q-.541-.029-1.1-.042ZM10.783.059h0c-.366.019-.734.044-1.094.074a.091.091,0,0,0-.084.1.085.085,0,0,0,.1.083c.358-.03.725-.054,1.089-.074a.091.091,0,0,0,0-.182Zm5.468.069a.091.091,0,0,0-.007.182c.356.029.722.064,1.087.1a.088.088,0,0,0,.1-.081.091.091,0,0,0-.081-.1c-.367-.041-.735-.076-1.092-.1ZM8.6.24h-.01C8.22.282,7.854.329,7.5.381a.091.091,0,0,0-.077.1.09.09,0,0,0,.1.077c.35-.051.715-.1,1.083-.14A.091.091,0,0,0,8.6.24Zm9.825.133a.091.091,0,0,0-.013.181c.365.053.728.112,1.077.176A.09.09,0,0,0,19.6.655a.091.091,0,0,0-.074-.106c-.351-.064-.716-.123-1.083-.177ZM6.436.558H6.419C6.048.628,5.686.7,5.343.781A.091.091,0,0,0,5.275.89a.089.089,0,0,0,.109.069c.34-.078.7-.152,1.069-.22A.091.091,0,0,0,6.436.558ZM20.579.767a.091.091,0,0,0-.02.18c.368.084.723.174,1.056.267a.091.091,0,0,0,.05-.175C21.328.944,20.97.853,20.6.769ZM4.3,1.05a.087.087,0,0,0-.025,0c-.366.1-.719.216-1.049.334a.091.091,0,0,0,.061.172c.326-.116.674-.228,1.037-.33A.091.091,0,0,0,4.3,1.05Zm18.38.314a.091.091,0,0,0-.03.177c.363.128.7.264,1.007.406a.091.091,0,1,0,.076-.166c-.311-.144-.655-.282-1.023-.412A.091.091,0,0,0,22.683,1.364ZM2.248,1.8A.087.087,0,0,0,2.21,1.8a7.289,7.289,0,0,0-.968.537.091.091,0,1,0,.1.152,7.11,7.11,0,0,1,.944-.523A.091.091,0,0,0,2.248,1.8Zm22.41.5a.091.091,0,0,0-.05.168,3.67,3.67,0,0,1,.808.69.091.091,0,0,0,.14-.117,3.853,3.853,0,0,0-.848-.725A.092.092,0,0,0,24.658,2.3ZM.475,3.044A.091.091,0,0,0,.4,3.079,1.653,1.653,0,0,0,0,4.114a.1.1,0,0,0,.091.1.084.084,0,0,0,.092-.082V4.108a1.472,1.472,0,0,1,.364-.915.092.092,0,0,0-.014-.128A.092.092,0,0,0,.475,3.044ZM25.9,4.079l-.091.019a1.485,1.485,0,0,1-.374.949.091.091,0,1,0,.142.115,1.659,1.659,0,0,0,.415-1.048ZM.5,5.028a.091.091,0,0,0-.07.149,3.836,3.836,0,0,0,.845.729.091.091,0,0,0,.1-.152,3.641,3.641,0,0,1-.8-.693A.092.092,0,0,0,.5,5.028Zm24.191.7a.089.089,0,0,0-.051.015,7.273,7.273,0,0,1-.945.522.091.091,0,0,0,.077.165,7.455,7.455,0,0,0,.969-.535.091.091,0,0,0-.05-.167ZM2.281,6.264a.091.091,0,0,0-.039.174c.309.144.653.283,1.022.414a.091.091,0,1,0,.061-.172c-.364-.129-.7-.266-1.006-.407A.089.089,0,0,0,2.281,6.264Zm20.436.4a.1.1,0,0,0-.031,0c-.327.117-.676.228-1.037.33a.091.091,0,0,0,.049.175c.365-.1.717-.215,1.049-.333a.091.091,0,0,0-.031-.177ZM4.338,7a.091.091,0,0,0-.025.179c.338.1.7.186,1.066.27a.089.089,0,0,0,.109-.068.091.091,0,0,0-.068-.109C5.053,7.193,4.7,7.1,4.363,7.009A.086.086,0,0,0,4.338,7Zm16.275.265-.02,0c-.345.079-.7.152-1.069.219a.091.091,0,1,0,.033.179c.366-.067.728-.142,1.076-.221a.091.091,0,0,0-.02-.18ZM6.471,7.493a.091.091,0,0,0-.016.181c.354.065.719.125,1.084.177a.09.09,0,0,0,.1-.077.091.091,0,0,0-.077-.1C7.2,7.619,6.84,7.56,6.488,7.495Zm11.99.174h-.013c-.357.052-.721.1-1.082.139a.091.091,0,0,0,.02.181c.364-.041.73-.088,1.088-.14a.091.091,0,0,0-.013-.181Zm-9.825.142a.091.091,0,0,0-.01.182c.359.04.727.075,1.092.105a.086.086,0,0,0,.1-.083.091.091,0,0,0-.084-.1c-.364-.03-.73-.065-1.087-.1Zm7.65.1h-.008c-.363.03-.729.054-1.089.073a.091.091,0,0,0-.086.1.1.1,0,0,0,.1.086c.362-.019.73-.044,1.095-.074a.091.091,0,0,0-.007-.182Zm-5.468.075a.091.091,0,0,0,0,.182q.541.029,1.1.043A.087.087,0,0,0,12,8.124a.091.091,0,0,0-.089-.093q-.553-.014-1.092-.043ZM14.1,8.03h0q-.54.014-1.092.014a.091.091,0,0,0,0,.182q.554,0,1.1-.014a.091.091,0,0,0,0-.182Z" transform="translate(0 0)" fill="#707070" stroke="#707070" stroke-width="0.3"/>
        </g>
        <g id="Group_343-2" data-name="Group 343" transform="translate(0 0)">
          <path id="Path_261-2" data-name="Path 261" d="M13.168,0A38.574,38.574,0,0,0,8.637.259C3.39.881,0,2.483,0,4.34a.176.176,0,0,0,.021.082L13.171,29.275l2.993-5.643L26.306,4.453a.333.333,0,0,0,.037-.113c0-1.722-2.911-3.232-7.6-3.941A37.418,37.418,0,0,0,13.168,0ZM.353,4.3C.41,2.673,3.741,1.194,8.679.609a38.318,38.318,0,0,1,4.49-.256,37.091,37.091,0,0,1,5.524.4c4.391.665,7.244,2.055,7.3,3.55L13.168,28.543Z" transform="translate(0)" fill="#707070" stroke="rgba(0,0,0,0)" stroke-width="1"/>
        </g>
      </g>
      <g id="Group_358" data-name="Group 358" transform="translate(83.615 33.287) rotate(-180)">
        <g id="Group_342-3" data-name="Group 342" transform="translate(0.119 0.062)">
          <path id="Path_260-3" data-name="Path 260" d="M9.515,0q-.406,0-.8.011a.067.067,0,0,0,0,.134h0q.4-.01.8-.011a.067.067,0,1,0,0-.134Zm.8.01a.067.067,0,0,0,0,.134q.406.01.8.031h0a.067.067,0,0,0,0-.134q-.4-.021-.8-.031ZM7.91.043h0C7.638.058,7.368.076,7.1.1A.067.067,0,0,0,7.043.17a.062.062,0,0,0,.072.061c.263-.022.532-.04.8-.054a.067.067,0,0,0,0-.134Zm4.011.051a.067.067,0,0,0-.005.134c.261.021.529.047.8.076a.065.065,0,0,0,.074-.059.067.067,0,0,0-.059-.074c-.269-.03-.539-.056-.8-.077ZM6.31.176H6.3c-.272.031-.54.065-.8.1a.067.067,0,0,0-.057.076.066.066,0,0,0,.076.057c.257-.037.524-.072.794-.1A.067.067,0,0,0,6.31.176Zm7.208.1a.067.067,0,0,0-.01.133c.268.039.534.082.79.129a.066.066,0,0,0,.078-.054A.067.067,0,0,0,14.322.4c-.258-.047-.525-.09-.795-.13Zm-8.8.136H4.709c-.273.05-.538.105-.789.163a.066.066,0,0,0-.05.08A.065.065,0,0,0,3.95.7C4.2.646,4.463.592,4.734.542A.067.067,0,0,0,4.721.409ZM15.1.563a.067.067,0,0,0-.015.132c.27.062.531.127.775.2a.067.067,0,0,0,.036-.129c-.247-.069-.509-.136-.782-.2ZM3.157.77l-.018,0c-.269.076-.528.159-.769.245a.067.067,0,0,0,.045.126c.239-.085.495-.167.76-.242A.067.067,0,0,0,3.157.77ZM16.641,1a.067.067,0,0,0-.022.13c.266.094.514.194.739.3a.067.067,0,1,0,.056-.121c-.228-.105-.48-.207-.75-.3A.067.067,0,0,0,16.641,1ZM1.649,1.318a.064.064,0,0,0-.028.006,5.347,5.347,0,0,0-.71.394.067.067,0,1,0,.074.111,5.216,5.216,0,0,1,.692-.384.067.067,0,0,0-.028-.127Zm16.44.367a.067.067,0,0,0-.037.123,2.692,2.692,0,0,1,.593.506.067.067,0,0,0,.1-.086,2.827,2.827,0,0,0-.622-.532A.067.067,0,0,0,18.089,1.685ZM.348,2.233A.067.067,0,0,0,.3,2.258a1.212,1.212,0,0,0-.3.759.073.073,0,0,0,.067.073.062.062,0,0,0,.067-.06V3.014A1.08,1.08,0,0,1,.4,2.342a.067.067,0,0,0-.01-.094A.068.068,0,0,0,.348,2.233ZM19,2.992l-.067.014a1.089,1.089,0,0,1-.274.7.067.067,0,1,0,.1.084,1.217,1.217,0,0,0,.3-.769Zm-18.638.7a.067.067,0,0,0-.051.11,2.814,2.814,0,0,0,.62.535.067.067,0,0,0,.074-.112,2.671,2.671,0,0,1-.59-.509A.067.067,0,0,0,.364,3.688ZM18.111,4.2a.065.065,0,0,0-.037.011,5.335,5.335,0,0,1-.693.383.067.067,0,0,0,.056.121,5.469,5.469,0,0,0,.711-.392.067.067,0,0,0-.037-.123ZM1.674,4.6a.067.067,0,0,0-.028.127c.226.105.479.207.75.3A.067.067,0,1,0,2.44,4.9c-.267-.095-.515-.2-.738-.3A.065.065,0,0,0,1.674,4.6Zm14.992.3a.074.074,0,0,0-.022,0c-.24.086-.5.167-.761.242a.067.067,0,0,0,.036.129c.268-.075.526-.157.77-.244a.067.067,0,0,0-.022-.13ZM3.182,5.139a.067.067,0,0,0-.018.131c.248.07.511.137.782.2a.066.066,0,0,0,.08-.05.066.066,0,0,0-.05-.08c-.269-.061-.529-.127-.775-.2Zm11.94.195-.015,0c-.253.058-.517.112-.784.161a.067.067,0,1,0,.024.132c.269-.049.534-.1.789-.162a.067.067,0,0,0-.015-.132ZM4.747,5.5a.067.067,0,0,0-.012.133c.26.048.528.091.795.13A.066.066,0,0,0,5.606,5.7a.067.067,0,0,0-.057-.076c-.265-.039-.531-.082-.79-.129Zm8.8.128h-.01c-.262.038-.529.072-.794.1a.067.067,0,0,0,.015.133c.267-.03.535-.064.8-.1a.067.067,0,0,0-.01-.133Zm-7.208.1a.067.067,0,0,0-.007.133c.263.029.533.055.8.077A.063.063,0,0,0,7.2,5.879a.067.067,0,0,0-.061-.072c-.267-.022-.535-.048-.8-.077Zm5.612.076h-.006c-.266.022-.535.04-.8.054a.067.067,0,0,0-.063.07.07.07,0,0,0,.07.063c.265-.014.536-.032.8-.054a.067.067,0,0,0-.005-.133ZM7.936,5.86a.067.067,0,0,0,0,.134q.4.021.8.032a.064.064,0,0,0,.069-.065.067.067,0,0,0-.065-.069q-.406-.01-.8-.032Zm2.408.031h0q-.4.01-.8.011a.067.067,0,0,0,0,.134q.406,0,.8-.011a.067.067,0,0,0,0-.134Z" transform="translate(0 0)" fill="#707070" stroke="#707070" stroke-width="0.3"/>
        </g>
        <g id="Group_343-3" data-name="Group 343" transform="translate(0 0)">
          <path id="Path_261-3" data-name="Path 261" d="M9.661,0A28.3,28.3,0,0,0,6.337.19C2.487.646,0,1.822,0,3.184a.129.129,0,0,0,.015.061L9.663,21.476l2.2-4.14L19.3,3.267a.244.244,0,0,0,.027-.083c0-1.263-2.135-2.371-5.573-2.891A27.45,27.45,0,0,0,9.661,0ZM.259,3.153C.3,1.961,2.745.876,6.367.446A28.111,28.111,0,0,1,9.661.258a27.21,27.21,0,0,1,4.053.29c3.222.488,5.314,1.508,5.353,2.6L9.661,20.939Z" transform="translate(0 0)" fill="#707070" stroke="rgba(0,0,0,0)" stroke-width="1"/>
        </g>
      </g>
    </g>
    <g id="Rectangle_170" data-name="Rectangle 170" transform="translate(28.441 82.369)" fill="none" stroke="#707070" stroke-width="0.7">
      <rect width="84" height="8" rx="1" stroke="none"/>
      <rect x="0.35" y="0.35" width="83.3" height="7.3" rx="0.65" fill="none"/>
    </g>
    <g id="Group_360" data-name="Group 360" transform="translate(32.6 82.765)">
      <path id="Path_264" data-name="Path 264" d="M803.682,1372.241v3.255" transform="translate(-803.682 -1372.241)" fill="none" stroke="#707070" stroke-width="0.7"/>
      <path id="Path_266" data-name="Path 266" d="M803.682,1372.241v3.255" transform="translate(-797.57 -1372.241)" fill="none" stroke="#707070" stroke-width="0.7"/>
      <path id="Path_268" data-name="Path 268" d="M803.682,1372.241v3.255" transform="translate(-791.457 -1372.241)" fill="none" stroke="#707070" stroke-width="0.7"/>
      <path id="Path_270" data-name="Path 270" d="M803.682,1372.241v3.255" transform="translate(-785.344 -1372.241)" fill="none" stroke="#707070" stroke-width="0.7"/>
      <path id="Path_272" data-name="Path 272" d="M803.682,1372.241v3.255" transform="translate(-779.232 -1372.241)" fill="none" stroke="#707070" stroke-width="0.7"/>
      <path id="Path_274" data-name="Path 274" d="M803.682,1372.241v3.255" transform="translate(-773.119 -1372.241)" fill="none" stroke="#707070" stroke-width="0.7"/>
      <path id="Path_276" data-name="Path 276" d="M803.682,1372.241v3.255" transform="translate(-767.007 -1372.241)" fill="none" stroke="#707070" stroke-width="0.7"/>
      <path id="Path_278" data-name="Path 278" d="M803.682,1372.241v3.255" transform="translate(-760.894 -1372.241)" fill="none" stroke="#707070" stroke-width="0.7"/>
      <path id="Path_280" data-name="Path 280" d="M803.682,1372.241v3.255" transform="translate(-754.782 -1372.241)" fill="none" stroke="#707070" stroke-width="0.7"/>
      <path id="Path_282" data-name="Path 282" d="M803.682,1372.241v3.255" transform="translate(-748.669 -1372.241)" fill="none" stroke="#707070" stroke-width="0.7"/>
      <path id="Path_284" data-name="Path 284" d="M803.682,1372.241v3.255" transform="translate(-742.557 -1372.241)" fill="none" stroke="#707070" stroke-width="0.7"/>
      <path id="Path_286" data-name="Path 286" d="M803.682,1372.241v3.255" transform="translate(-736.444 -1372.241)" fill="none" stroke="#707070" stroke-width="0.7"/>
      <path id="Path_288" data-name="Path 288" d="M803.682,1372.241v3.255" transform="translate(-730.331 -1372.241)" fill="none" stroke="#707070" stroke-width="0.7"/>
      <path id="Path_265" data-name="Path 265" d="M803.682,1372.24v5.777" transform="translate(-800.626 -1372.24)" fill="none" stroke="#707070" stroke-width="0.7"/>
      <path id="Path_267" data-name="Path 267" d="M803.682,1372.24v5.777" transform="translate(-794.513 -1372.24)" fill="none" stroke="#707070" stroke-width="0.7"/>
      <path id="Path_269" data-name="Path 269" d="M803.682,1372.24v5.777" transform="translate(-788.401 -1372.24)" fill="none" stroke="#707070" stroke-width="0.7"/>
      <path id="Path_271" data-name="Path 271" d="M803.682,1372.24v5.777" transform="translate(-782.288 -1372.24)" fill="none" stroke="#707070" stroke-width="0.7"/>
      <path id="Path_273" data-name="Path 273" d="M803.682,1372.24v5.777" transform="translate(-776.176 -1372.24)" fill="none" stroke="#707070" stroke-width="0.7"/>
      <path id="Path_275" data-name="Path 275" d="M803.682,1372.24v5.777" transform="translate(-770.063 -1372.24)" fill="none" stroke="#707070" stroke-width="0.7"/>
      <path id="Path_277" data-name="Path 277" d="M803.682,1372.24v5.777" transform="translate(-763.951 -1372.24)" fill="none" stroke="#707070" stroke-width="0.7"/>
      <path id="Path_279" data-name="Path 279" d="M803.682,1372.24v5.777" transform="translate(-757.838 -1372.24)" fill="none" stroke="#707070" stroke-width="0.7"/>
      <path id="Path_281" data-name="Path 281" d="M803.682,1372.24v5.777" transform="translate(-751.725 -1372.24)" fill="none" stroke="#707070" stroke-width="0.7"/>
      <path id="Path_283" data-name="Path 283" d="M803.682,1372.24v5.777" transform="translate(-745.613 -1372.24)" fill="none" stroke="#707070" stroke-width="0.7"/>
      <path id="Path_285" data-name="Path 285" d="M803.682,1372.24v5.777" transform="translate(-739.5 -1372.24)" fill="none" stroke="#707070" stroke-width="0.7"/>
      <path id="Path_287" data-name="Path 287" d="M803.682,1372.24v5.777" transform="translate(-733.388 -1372.24)" fill="none" stroke="#707070" stroke-width="0.7"/>
      <path id="Path_289" data-name="Path 289" d="M803.682,1372.24v5.777" transform="translate(-727.275 -1372.24)" fill="none" stroke="#707070" stroke-width="0.7"/>
    </g>
  </g>
</svg>
