<svg xmlns="http://www.w3.org/2000/svg" width="99" height="83" viewBox="0 0 99 83">
  <g id="Group_483" data-name="Group 483" transform="translate(-21.439 -17.369)">
    <g id="Rectangle_173" data-name="Rectangle 173" transform="translate(21.439 17.369)" fill="none" stroke="#707070" stroke-width="0.7" stroke-dasharray="4 2">
      <rect width="99" height="83" stroke="none"/>
      <rect x="0.35" y="0.35" width="98.3" height="82.3" fill="none"/>
    </g>
    <g id="Group_367" data-name="Group 367" transform="translate(25.469 46.028)">
      <g id="Group_356" data-name="Group 356" transform="translate(28.332 31.486) rotate(-180)">
        <g id="Group_343" data-name="Group 343" transform="translate(0 0)">
          <path id="Path_261" data-name="Path 261" d="M14.163,0A41.488,41.488,0,0,0,9.29.279C3.647.948,0,2.671,0,4.668a.19.19,0,0,0,.022.089L14.166,31.486l3.219-6.07L28.293,4.789a.358.358,0,0,0,.039-.121c0-1.852-3.131-3.476-8.17-4.239A40.244,40.244,0,0,0,14.163,0ZM.38,4.623C.441,2.875,4.024,1.284,9.334.654A41.213,41.213,0,0,1,14.163.379,39.892,39.892,0,0,1,20.1.8c4.723.715,7.791,2.21,7.847,3.819L14.163,30.7Z" transform="translate(0 0)" fill="#707070" stroke="rgba(0,0,0,0)" stroke-width="1"/>
        </g>
      </g>
      <g id="Group_365" data-name="Group 365" transform="translate(59.168 31.486) rotate(-180)">
        <g id="Group_342" data-name="Group 342" transform="translate(0.174 0.091)">
          <path id="Path_260" data-name="Path 260" d="M13.95,0q-.6,0-1.18.016a.1.1,0,0,0,0,.2h0Q13.357.2,13.95.2a.1.1,0,1,0,0-.2Zm1.177.014a.1.1,0,0,0,0,.2q.595.015,1.174.045H16.3a.1.1,0,0,0,0-.2Q15.727.029,15.13.014ZM11.6.064h-.005c-.393.021-.789.048-1.177.08a.1.1,0,0,0-.09.106.091.091,0,0,0,.106.089C10.816.307,11.211.28,11.6.26a.1.1,0,0,0,0-.2Zm5.881.075a.1.1,0,0,0-.008.2c.383.031.776.069,1.169.112a.1.1,0,0,0,.108-.087.1.1,0,0,0-.087-.108c-.395-.044-.79-.081-1.175-.113ZM9.25.258H9.239c-.4.045-.792.1-1.17.152a.1.1,0,0,0-.083.111A.1.1,0,0,0,8.1.6C8.474.549,8.866.5,9.262.453a.1.1,0,0,0-.011-.2ZM19.817.4A.1.1,0,0,0,19.8.6c.393.057.783.121,1.159.189A.1.1,0,0,0,21.076.7.1.1,0,0,0,21,.591c-.378-.069-.77-.132-1.165-.19ZM6.922.6,6.9.6C6.5.675,6.115.756,5.747.84a.1.1,0,0,0-.074.117.1.1,0,0,0,.117.074C6.156.947,6.543.868,6.94.795A.1.1,0,0,0,6.922.6ZM22.133.825a.1.1,0,0,0-.022.193c.4.09.778.187,1.136.288a.1.1,0,0,0,.053-.189c-.362-.1-.747-.2-1.146-.29Zm-17.5.3a.093.093,0,0,0-.027,0c-.394.112-.773.233-1.128.36a.1.1,0,0,0,.066.185c.35-.125.725-.245,1.115-.355a.1.1,0,0,0-.027-.193ZM24.4,1.467a.1.1,0,0,0-.033.191c.39.138.754.284,1.083.436a.1.1,0,1,0,.082-.178c-.334-.155-.7-.3-1.1-.443A.1.1,0,0,0,24.4,1.467ZM2.418,1.932a.094.094,0,0,0-.041.009,7.84,7.84,0,0,0-1.041.577.1.1,0,1,0,.109.163,7.647,7.647,0,0,1,1.015-.562.1.1,0,0,0-.041-.187Zm24.1.538a.1.1,0,0,0-.054.18,3.947,3.947,0,0,1,.869.742.1.1,0,0,0,.15-.126,4.144,4.144,0,0,0-.912-.78A.1.1,0,0,0,26.52,2.47Zm-26.01.8a.1.1,0,0,0-.077.037A1.777,1.777,0,0,0,0,4.424a.107.107,0,0,0,.1.107.091.091,0,0,0,.1-.089V4.418a1.583,1.583,0,0,1,.391-.984A.1.1,0,0,0,.572,3.3.1.1,0,0,0,.511,3.274ZM27.859,4.387l-.1.02a1.6,1.6,0,0,1-.4,1.021.1.1,0,1,0,.152.124,1.784,1.784,0,0,0,.446-1.127ZM.534,5.407a.1.1,0,0,0-.075.161,4.125,4.125,0,0,0,.909.784.1.1,0,0,0,.108-.164A3.916,3.916,0,0,1,.61,5.443.1.1,0,0,0,.534,5.407Zm26.018.754a.1.1,0,0,0-.055.016,7.822,7.822,0,0,1-1.016.561.1.1,0,0,0,.083.178,8.018,8.018,0,0,0,1.043-.575.1.1,0,0,0-.054-.18Zm-24.1.576a.1.1,0,0,0-.042.187c.332.155.7.3,1.1.445a.1.1,0,1,0,.066-.185c-.392-.139-.756-.287-1.082-.438A.1.1,0,0,0,2.453,6.737Zm21.979.435a.109.109,0,0,0-.033.005c-.352.126-.727.245-1.115.354a.1.1,0,1,0,.053.189c.392-.11.772-.231,1.128-.358a.1.1,0,0,0-.033-.191ZM4.666,7.534a.1.1,0,0,0-.027.192c.363.1.749.2,1.146.29A.1.1,0,0,0,5.9,7.943a.1.1,0,0,0-.074-.117c-.394-.089-.776-.186-1.136-.288A.092.092,0,0,0,4.666,7.534Zm17.5.285a.086.086,0,0,0-.022,0c-.371.084-.758.164-1.149.236a.1.1,0,1,0,.036.193c.394-.072.783-.152,1.157-.238a.1.1,0,0,0-.022-.193Zm-15.21.24a.1.1,0,0,0-.017.195c.381.07.773.134,1.165.191a.1.1,0,0,0,.111-.083.1.1,0,0,0-.083-.111c-.389-.056-.779-.12-1.158-.19Zm12.9.188h-.014c-.384.056-.775.106-1.164.15a.1.1,0,0,0,.022.195c.391-.044.785-.094,1.171-.151a.1.1,0,0,0-.014-.195ZM9.289,8.4a.1.1,0,0,0-.011.2c.386.043.781.081,1.174.113a.092.092,0,0,0,.106-.089.1.1,0,0,0-.09-.106c-.391-.032-.785-.07-1.17-.113Zm8.228.111h-.008c-.39.032-.784.058-1.171.079a.1.1,0,0,0-.093.1.1.1,0,0,0,.1.093c.389-.02.785-.047,1.177-.08a.1.1,0,0,0-.008-.2Zm-5.881.081a.1.1,0,0,0,0,.2q.582.031,1.179.046a.094.094,0,0,0,.1-.1.1.1,0,0,0-.1-.1q-.595-.015-1.174-.046Zm3.53.046h0q-.581.015-1.174.016a.1.1,0,0,0,0,.2q.6,0,1.18-.016a.1.1,0,0,0,0-.2Z" transform="translate(0 0)" fill="#707070" stroke="#707070" stroke-width="0.3"/>
        </g>
        <g id="Group_343-2" data-name="Group 343" transform="translate(0 0)">
          <path id="Path_261-2" data-name="Path 261" d="M14.163,0A41.488,41.488,0,0,0,9.29.279C3.647.948,0,2.671,0,4.668a.19.19,0,0,0,.022.089L14.166,31.486l3.219-6.07L28.293,4.789a.358.358,0,0,0,.039-.121c0-1.852-3.131-3.476-8.17-4.239A40.244,40.244,0,0,0,14.163,0ZM.38,4.623C.441,2.875,4.024,1.284,9.334.654A41.213,41.213,0,0,1,14.163.379,39.892,39.892,0,0,1,20.1.8c4.723.715,7.791,2.21,7.847,3.819L14.163,30.7Z" transform="translate(0 0)" fill="#707070" stroke="rgba(0,0,0,0)" stroke-width="1"/>
        </g>
      </g>
      <g id="Group_366" data-name="Group 366" transform="translate(90.004 31.486) rotate(-180)">
        <g id="Group_343-3" data-name="Group 343" transform="translate(0 0)">
          <path id="Path_261-3" data-name="Path 261" d="M14.163,0A41.488,41.488,0,0,0,9.29.279C3.647.948,0,2.671,0,4.668a.19.19,0,0,0,.022.089L14.166,31.486l3.219-6.07L28.293,4.789a.358.358,0,0,0,.039-.121c0-1.852-3.131-3.476-8.17-4.239A40.244,40.244,0,0,0,14.163,0ZM.38,4.623C.441,2.875,4.024,1.284,9.334.654A41.213,41.213,0,0,1,14.163.379,39.892,39.892,0,0,1,20.1.8c4.723.715,7.791,2.21,7.847,3.819L14.163,30.7Z" transform="translate(0 0)" fill="#707070" stroke="rgba(0,0,0,0)" stroke-width="1"/>
        </g>
      </g>
    </g>
    <path id="Path_302" data-name="Path 302" d="M539.075,1529.174h5.26" transform="translate(-439.878 -1475.002)" fill="none" stroke="#707070" stroke-linecap="round" stroke-width="0.5"/>
    <path id="Path_303" data-name="Path 303" d="M539.075,1529.174h10.263" transform="translate(-442.38 -1469.909)" fill="none" stroke="#707070" stroke-linecap="round" stroke-width="0.5"/>
    <path id="Path_304" data-name="Path 304" d="M539.075,1529.174h15.606" transform="translate(-445.051 -1464.815)" fill="none" stroke="#707070" stroke-linecap="round" stroke-width="0.5"/>
    <path id="Path_305" data-name="Path 305" d="M539.075,1529.174h19.017" transform="translate(-446.757 -1459.721)" fill="none" stroke="#707070" stroke-linecap="round" stroke-width="0.5"/>
    <path id="Path_306" data-name="Path 306" d="M539.075,1529.174h22.162" transform="translate(-448.329 -1455.646)" fill="none" stroke="#707070" stroke-linecap="round" stroke-width="0.5"/>
  </g>
</svg>
